<svg width="47" height="31" viewBox="0 0 47 31" fill="none" xmlns="http://www.w3.org/2000/svg">
<path d="M7.78894 1.01587H39.7913V30.3937H23.8748L7.78894 30.3091V1.01587Z" fill="#171717"/>
<path fill-rule="evenodd" clip-rule="evenodd" d="M6.35476 0L0 30.4057H30.9069C29.7351 30.067 28.5177 29.0866 27.9149 28.3636C27.1021 27.4256 26.8566 26.2233 26.8566 24.9771C26.8566 21.0403 32.1311 8.4527 31.7433 5.19997C31.6384 4.44478 30.6647 2.15212 29.3271 1.5798C28.9613 1.42233 29.0595 1.56795 29.9451 1.46974C30.636 1.41217 31.7823 1.16326 33.8616 1.54594C35.8495 1.92014 37.2312 3.16638 37.9559 4.97815C38.684 6.85088 37.3548 11.2855 37.0297 12.4284C33.699 23.9561 33.1437 23.7004 33.3875 26.2691C33.5229 27.9522 34.3171 29.5336 35.1349 30.4074H40.0453L46.3866 0H6.35476ZM14.7634 24.8908H8.24273C8.28337 21.7532 12.8145 9.26884 13.0854 6.90168C13.3022 5.26262 13.0583 4.70046 12.7468 4.07565C11.614 1.50868 10.2814 1.5036 10.5456 1.5036C12.4081 1.5036 17.4625 0.284465 19.3403 4.97984C20.7 8.46794 14.9632 22.1003 14.7634 24.8874V24.8908ZM24.0645 24.8908H17.5471C17.5471 21.1368 22.8131 8.46624 22.4254 5.20166C22.3289 4.37705 21.2926 2.09624 20.0074 1.5815C19.6485 1.42741 19.7517 1.56625 20.6373 1.47143C24.3625 1.15987 27.1529 1.49175 28.6481 4.97984C30.001 8.44084 24.2592 22.1612 24.0645 24.8874V24.8908Z" fill="#FAC200"/>
</svg>
